# xmcd CD database file generated by OrangeCD 5.2
#
# Track frame offsets:
#	150
#	11951
#	22779
#	36791
#	48317
#	63212
#	78782
#	92852
#	105907
#	120609
#
# Disc length: 1783 seconds
#
# Revision: 0
# Processed by: cddbd v1.5PL3 Copyright (c) Steve Scherf et al.
# Submitted via: OrangeCD 5.2
#
DISCID=6b06f50a
DTITLE=David Tennyson - Who Knew
DYEAR=2003
DGENRE=Pop
TTITLE0=Who Knew
TTITLE1=The Letter
TTITLE2=Asking for the Moon
TTITLE3=New Sensation
TTITLE4=By Heart
TTITLE5=She Was a Mystery
TTITLE6=Stuck on You
TTITLE7=Nights Are Forever Without You
TTITLE8=As I Am
TTITLE9=Love Rules
EXTD=
EXTT0=
EXTT1=
EXTT2=
EXTT3=
EXTT4=
EXTT5=
EXTT6=
EXTT7=
EXTT8=
EXTT9=
PLAYORDER=
